<svg width="71" height="16" viewBox="0 0 71 16" fill="none" xmlns="http://www.w3.org/2000/svg">
<path d="M1.92969 12H0.429688V0.625H1.92969V12ZM5.82031 3.54688L5.86719 4.60938C6.51302 3.79688 7.35677 3.39062 8.39844 3.39062C10.1849 3.39062 11.0859 4.39844 11.1016 6.41406V12H9.65625V6.40625C9.65104 5.79688 9.51042 5.34635 9.23438 5.05469C8.96354 4.76302 8.53906 4.61719 7.96094 4.61719C7.49219 4.61719 7.08073 4.74219 6.72656 4.99219C6.3724 5.24219 6.09635 5.57031 5.89844 5.97656V12H4.45312V3.54688H5.82031ZM18.2031 9.75781C18.2031 9.36719 18.0547 9.0651 17.7578 8.85156C17.4661 8.63281 16.9531 8.44531 16.2188 8.28906C15.4896 8.13281 14.9089 7.94531 14.4766 7.72656C14.0495 7.50781 13.7318 7.2474 13.5234 6.94531C13.3203 6.64323 13.2188 6.28385 13.2188 5.86719C13.2188 5.17448 13.5104 4.58854 14.0938 4.10938C14.6823 3.63021 15.4323 3.39062 16.3438 3.39062C17.3021 3.39062 18.0781 3.63802 18.6719 4.13281C19.2708 4.6276 19.5703 5.26042 19.5703 6.03125H18.1172C18.1172 5.63542 17.9479 5.29427 17.6094 5.00781C17.276 4.72135 16.8542 4.57812 16.3438 4.57812C15.8177 4.57812 15.4062 4.69271 15.1094 4.92188C14.8125 5.15104 14.6641 5.45052 14.6641 5.82031C14.6641 6.16927 14.8021 6.43229 15.0781 6.60938C15.3542 6.78646 15.8516 6.95573 16.5703 7.11719C17.2943 7.27865 17.8802 7.47135 18.3281 7.69531C18.776 7.91927 19.1068 8.1901 19.3203 8.50781C19.5391 8.82031 19.6484 9.20312 19.6484 9.65625C19.6484 10.4115 19.3464 11.0182 18.7422 11.4766C18.138 11.9297 17.3542 12.1562 16.3906 12.1562C15.7135 12.1562 15.1146 12.0365 14.5938 11.7969C14.0729 11.5573 13.6641 11.224 13.3672 10.7969C13.0755 10.3646 12.9297 9.89844 12.9297 9.39844H14.375C14.401 9.88281 14.5938 10.2682 14.9531 10.5547C15.3177 10.8359 15.7969 10.9766 16.3906 10.9766C16.9375 10.9766 17.375 10.8672 17.7031 10.6484C18.0365 10.4245 18.2031 10.1276 18.2031 9.75781ZM23.4922 1.5V3.54688H25.0703V4.66406H23.4922V9.90625C23.4922 10.2448 23.5625 10.5 23.7031 10.6719C23.8438 10.8385 24.0833 10.9219 24.4219 10.9219C24.5885 10.9219 24.8177 10.8906 25.1094 10.8281V12C24.7292 12.1042 24.3594 12.1562 24 12.1562C23.3542 12.1562 22.8672 11.9609 22.5391 11.5703C22.2109 11.1797 22.0469 10.625 22.0469 9.90625V4.66406H20.5078V3.54688H22.0469V1.5H23.4922ZM31.9844 12C31.901 11.8333 31.8333 11.5365 31.7812 11.1094C31.1094 11.8073 30.3073 12.1562 29.375 12.1562C28.5417 12.1562 27.8568 11.9219 27.3203 11.4531C26.7891 10.9792 26.5234 10.3802 26.5234 9.65625C26.5234 8.77604 26.8568 8.09375 27.5234 7.60938C28.1953 7.11979 29.138 6.875 30.3516 6.875H31.7578V6.21094C31.7578 5.70573 31.6068 5.30469 31.3047 5.00781C31.0026 4.70573 30.5573 4.55469 29.9688 4.55469C29.4531 4.55469 29.0208 4.6849 28.6719 4.94531C28.3229 5.20573 28.1484 5.52083 28.1484 5.89062H26.6953C26.6953 5.46875 26.8438 5.0625 27.1406 4.67188C27.4427 4.27604 27.849 3.96354 28.3594 3.73438C28.875 3.50521 29.4401 3.39062 30.0547 3.39062C31.0286 3.39062 31.7917 3.63542 32.3438 4.125C32.8958 4.60938 33.1823 5.27865 33.2031 6.13281V10.0234C33.2031 10.7995 33.3021 11.4167 33.5 11.875V12H31.9844ZM29.5859 10.8984C30.0391 10.8984 30.4688 10.7812 30.875 10.5469C31.2812 10.3125 31.5755 10.0078 31.7578 9.63281V7.89844H30.625C28.8542 7.89844 27.9688 8.41667 27.9688 9.45312C27.9688 9.90625 28.1198 10.2604 28.4219 10.5156C28.724 10.7708 29.112 10.8984 29.5859 10.8984ZM35.125 7.70312C35.125 6.38542 35.4297 5.33854 36.0391 4.5625C36.6484 3.78125 37.4557 3.39062 38.4609 3.39062C39.4922 3.39062 40.2969 3.75521 40.875 4.48438L40.9453 3.54688H42.2656V11.7969C42.2656 12.8906 41.9401 13.7526 41.2891 14.3828C40.6432 15.013 39.7734 15.3281 38.6797 15.3281C38.0703 15.3281 37.474 15.1979 36.8906 14.9375C36.3073 14.6771 35.862 14.3203 35.5547 13.8672L36.3047 13C36.9245 13.7656 37.6823 14.1484 38.5781 14.1484C39.2812 14.1484 39.8281 13.9505 40.2188 13.5547C40.6146 13.1589 40.8125 12.6016 40.8125 11.8828V11.1562C40.2344 11.8229 39.4453 12.1562 38.4453 12.1562C37.4557 12.1562 36.6536 11.7578 36.0391 10.9609C35.4297 10.1641 35.125 9.07812 35.125 7.70312ZM36.5781 7.86719C36.5781 8.82031 36.7734 9.57031 37.1641 10.1172C37.5547 10.6589 38.1016 10.9297 38.8047 10.9297C39.7161 10.9297 40.3854 10.5156 40.8125 9.6875V5.82812C40.3698 5.02083 39.7057 4.61719 38.8203 4.61719C38.1172 4.61719 37.5677 4.89062 37.1719 5.4375C36.776 5.98438 36.5781 6.79427 36.5781 7.86719ZM48.5391 4.84375C48.3203 4.80729 48.0833 4.78906 47.8281 4.78906C46.8802 4.78906 46.237 5.19271 45.8984 6V12H44.4531V3.54688H45.8594L45.8828 4.52344C46.3568 3.76823 47.0286 3.39062 47.8984 3.39062C48.1797 3.39062 48.3932 3.42708 48.5391 3.5V4.84375ZM54.7812 12C54.6979 11.8333 54.6302 11.5365 54.5781 11.1094C53.9062 11.8073 53.1042 12.1562 52.1719 12.1562C51.3385 12.1562 50.6536 11.9219 50.1172 11.4531C49.5859 10.9792 49.3203 10.3802 49.3203 9.65625C49.3203 8.77604 49.6536 8.09375 50.3203 7.60938C50.9922 7.11979 51.9349 6.875 53.1484 6.875H54.5547V6.21094C54.5547 5.70573 54.4036 5.30469 54.1016 5.00781C53.7995 4.70573 53.3542 4.55469 52.7656 4.55469C52.25 4.55469 51.8177 4.6849 51.4688 4.94531C51.1198 5.20573 50.9453 5.52083 50.9453 5.89062H49.4922C49.4922 5.46875 49.6406 5.0625 49.9375 4.67188C50.2396 4.27604 50.6458 3.96354 51.1562 3.73438C51.6719 3.50521 52.237 3.39062 52.8516 3.39062C53.8255 3.39062 54.5885 3.63542 55.1406 4.125C55.6927 4.60938 55.9792 5.27865 56 6.13281V10.0234C56 10.7995 56.099 11.4167 56.2969 11.875V12H54.7812ZM52.3828 10.8984C52.8359 10.8984 53.2656 10.7812 53.6719 10.5469C54.0781 10.3125 54.3724 10.0078 54.5547 9.63281V7.89844H53.4219C51.651 7.89844 50.7656 8.41667 50.7656 9.45312C50.7656 9.90625 50.9167 10.2604 51.2188 10.5156C51.5208 10.7708 51.9089 10.8984 52.3828 10.8984ZM59.625 3.54688L59.6641 4.48438C60.2839 3.75521 61.1198 3.39062 62.1719 3.39062C63.3542 3.39062 64.1589 3.84375 64.5859 4.75C64.8672 4.34375 65.2318 4.01562 65.6797 3.76562C66.1328 3.51562 66.6667 3.39062 67.2812 3.39062C69.1354 3.39062 70.0781 4.3724 70.1094 6.33594V12H68.6641V6.42188C68.6641 5.81771 68.526 5.36719 68.25 5.07031C67.974 4.76823 67.5104 4.61719 66.8594 4.61719C66.3229 4.61719 65.8776 4.77865 65.5234 5.10156C65.1693 5.41927 64.9635 5.84896 64.9062 6.39062V12H63.4531V6.46094C63.4531 5.23177 62.8516 4.61719 61.6484 4.61719C60.7005 4.61719 60.0521 5.02083 59.7031 5.82812V12H58.2578V3.54688H59.625Z" fill="#2C2C2C"/>
</svg>
