<?xml version="1.0" standalone="no"?>
<!DOCTYPE svg PUBLIC "-//W3C//DTD SVG 20010904//EN"
 "http://www.w3.org/TR/2001/REC-SVG-20010904/DTD/svg10.dtd">
<svg version="1.0" xmlns="http://www.w3.org/2000/svg"
 width="200.000000pt" height="200.000000pt" viewBox="0 0 200.000000 200.000000"
 preserveAspectRatio="xMidYMid meet">

<g transform="translate(0.000000,200.000000) scale(0.100000,-0.100000)"
fill="#000000" stroke="none">
<path d="M883 1795 c-188 -41 -346 -185 -410 -374 -25 -74 -31 -220 -12 -301
28 -122 117 -249 226 -323 94 -65 167 -89 282 -95 171 -8 306 42 420 157 114
114 165 240 164 401 0 158 -57 286 -178 398 -133 125 -315 175 -492 137z m261
-85 c133 -42 257 -157 306 -287 28 -73 37 -201 20 -274 -45 -194 -207 -344
-403 -372 -331 -48 -616 266 -532 587 45 174 172 306 336 350 80 22 195 20
273 -4z"/>
<path d="M694 1507 c-2 -7 -3 -111 -2 -232 l3 -220 300 -3 c273 -2 301 -1 313
15 15 21 17 404 2 434 -10 18 -24 19 -311 19 -233 0 -301 -3 -305 -13z m546
-222 l0 -155 -240 0 -240 0 0 155 0 155 240 0 240 0 0 -155z"/>
<path d="M1030 1315 l-63 -64 -34 29 c-39 35 -49 37 -62 12 -8 -15 -1 -27 37
-65 26 -26 52 -47 58 -47 5 0 47 38 93 84 58 58 82 89 78 100 -12 30 -43 16
-107 -49z"/>
<path d="M857 993 c-4 -3 -7 -17 -7 -30 l0 -23 149 0 c128 0 150 2 155 16 14
37 -11 44 -154 44 -75 0 -140 -3 -143 -7z"/>
<path d="M243 534 c-10 -4 -13 -49 -13 -175 l0 -169 55 0 55 0 0 55 0 55 50 0
50 0 0 45 0 45 -50 0 c-46 0 -50 2 -50 25 0 23 3 24 68 27 l67 3 0 45 0 45
-110 2 c-60 1 -116 -1 -122 -3z"/>
<path d="M537 533 c-4 -3 -7 -82 -7 -175 l0 -168 131 0 130 0 -3 43 -3 42 -72
3 c-64 3 -73 5 -73 22 0 16 9 19 53 22 l52 3 0 40 0 40 -52 3 c-45 3 -53 6
-53 23 0 17 7 19 75 19 l75 0 0 39 c0 26 -5 41 -16 45 -21 8 -229 8 -237 -1z"/>
<path d="M857 533 c-4 -3 -7 -82 -7 -175 l0 -169 138 3 137 3 3 88 3 87 -56 0
-55 0 0 -45 c0 -43 -1 -45 -30 -45 l-30 0 0 118 c0 78 -4 122 -12 130 -13 13
-80 17 -91 5z"/>
<path d="M1187 533 c-4 -3 -7 -26 -7 -50 0 -41 1 -43 30 -43 l30 0 0 -80 0
-80 -30 0 c-29 0 -30 -2 -30 -45 l0 -46 117 3 c128 3 133 6 119 64 -5 19 -13
24 -36 24 l-30 0 0 80 0 80 29 0 c30 0 41 14 41 54 0 39 -18 46 -125 46 -56 0
-105 -3 -108 -7z"/>
<path d="M1483 534 c-25 -11 -15 -79 17 -122 l30 -42 -30 -42 c-24 -32 -30
-51 -30 -90 l0 -48 55 0 55 0 0 43 c0 41 21 77 45 77 18 0 34 -37 35 -77 l0
-43 55 0 55 0 0 48 c0 38 -6 58 -29 89 l-29 40 29 43 c33 49 40 114 13 124
-51 19 -94 2 -94 -38 -1 -35 -20 -66 -42 -66 -18 0 -36 34 -40 75 -3 27 -6 30
-43 32 -22 1 -46 0 -52 -3z"/>
</g>
</svg>
